<?xml version="1.0" encoding="UTF-8"?> <svg xmlns="http://www.w3.org/2000/svg" width="58" height="56" viewBox="0 0 58 56" fill="none"><path d="M49.3 2.8H43.5C42.7309 2.8 41.9932 3.095 41.4494 3.6201C40.9055 4.14521 40.6 4.8574 40.6 5.6V53.1776H52.2V5.6C52.2 4.8574 51.8945 4.14521 51.3506 3.6201C50.8067 3.095 50.0691 2.8 49.3 2.8ZM31.9 19.6H26.1C25.3309 19.6 24.5932 19.895 24.0494 20.4201C23.5055 20.9452 23.2 21.6574 23.2 22.4V53.1776H34.8V22.4C34.8 21.6574 34.4945 20.9452 33.9506 20.4201C33.4067 19.895 32.6691 19.6 31.9 19.6ZM14.5 36.4H8.69999C7.93086 36.4 7.19323 36.695 6.64938 37.2201C6.10552 37.7452 5.79999 38.4574 5.79999 39.2V53.1776H17.4V39.2C17.4 38.4574 17.0945 37.7452 16.5506 37.2201C16.0067 36.695 15.2691 36.4 14.5 36.4Z" fill="#5FA219"></path></svg> 