<?xml version="1.0" encoding="UTF-8"?> <svg xmlns="http://www.w3.org/2000/svg" width="82" height="82" viewBox="0 0 82 82" fill="none"><path d="M47.8333 41C47.8333 44.7583 44.7583 47.8333 41 47.8333C37.2416 47.8333 34.1666 44.7583 34.1666 41C34.1666 37.2417 37.2416 34.1667 41 34.1667C44.7583 34.1667 47.8333 37.2417 47.8333 41ZM23.9166 34.1667C20.1583 34.1667 17.0833 37.2417 17.0833 41C17.0833 44.7583 20.1583 47.8333 23.9166 47.8333C27.675 47.8333 30.75 44.7583 30.75 41C30.75 37.2417 27.675 34.1667 23.9166 34.1667ZM58.0833 34.1667C54.325 34.1667 51.25 37.2417 51.25 41C51.25 44.7583 54.325 47.8333 58.0833 47.8333C61.8416 47.8333 64.9166 44.7583 64.9166 41C64.9166 37.2417 61.8416 34.1667 58.0833 34.1667ZM49.5416 20.5C45.7833 20.5 42.7083 23.575 42.7083 27.3333C42.7083 31.0917 45.7833 34.1667 49.5416 34.1667C53.3 34.1667 56.375 31.0917 56.375 27.3333C56.375 23.575 53.3 20.5 49.5416 20.5ZM32.4583 20.5C28.7 20.5 25.625 23.575 25.625 27.3333C25.625 31.0917 28.7 34.1667 32.4583 34.1667C36.2166 34.1667 39.2916 31.0917 39.2916 27.3333C39.2916 23.575 36.2166 20.5 32.4583 20.5ZM49.5416 47.8333C45.7833 47.8333 42.7083 50.9083 42.7083 54.6667C42.7083 58.425 45.7833 61.5 49.5416 61.5C53.3 61.5 56.375 58.425 56.375 54.6667C56.375 50.9083 53.3 47.8333 49.5416 47.8333ZM32.4583 47.8333C28.7 47.8333 25.625 50.9083 25.625 54.6667C25.625 58.425 28.7 61.5 32.4583 61.5C36.2166 61.5 39.2916 58.425 39.2916 54.6667C39.2916 50.9083 36.2166 47.8333 32.4583 47.8333ZM41 61.5C37.2416 61.5 34.1666 64.575 34.1666 68.3333C34.1666 72.0917 37.2416 75.1667 41 75.1667C44.7583 75.1667 47.8333 72.0917 47.8333 68.3333C47.8333 64.575 44.7583 61.5 41 61.5ZM49.2 7.51667L46.4666 3.41667C38.95 6.83334 38.2666 19.1333 38.2666 20.5H43.3916C43.7333 17.7667 44.7583 9.22501 49.2 7.51667Z" fill="#5FA219"></path></svg> 