<?xml version="1.0" encoding="UTF-8"?> <svg xmlns="http://www.w3.org/2000/svg" width="54" height="54" viewBox="0 0 54 54" fill="none"><path d="M11.7103 5.20035L37.2098 16.4484L27 20.9508L1.647 9.76626C2.21786 9.16674 2.916 8.68235 3.71057 8.3687L11.7103 5.20035ZM16.8711 3.15959L22.8497 0.793257C25.5225 -0.264419 28.4813 -0.264419 31.1541 0.793257L50.2932 8.3687C51.084 8.68633 51.7821 9.16277 52.353 9.76626L42.1084 14.2845L16.8711 3.15959ZM53.9768 13.3713L28.9286 24.4208V54C29.6889 53.868 30.4345 53.6579 31.1541 53.3727L50.2932 45.7933C51.3844 45.3608 52.3226 44.5982 52.9843 43.6059C53.646 42.6137 54.0001 41.4383 54 40.2348V13.9272C54.0007 13.7415 53.9917 13.556 53.973 13.3713M25.0714 54V24.4208L0.0269999 13.3713C0.00961766 13.5561 0.000608013 13.7416 0 13.9272V40.2348C0.000154835 41.4388 0.354828 42.6145 1.01725 43.6068C1.67967 44.5991 2.61872 45.3614 3.71057 45.7933L22.8458 53.3727C23.571 53.6586 24.3154 53.869 25.0714 54Z" fill="#5FA219"></path></svg> 