<svg xmlns="http://www.w3.org/2000/svg" width="320" height="128" viewBox="0 0 320 128" fill="none"><path fill-rule="evenodd" clip-rule="evenodd" d="M263 0.458512L265.1 0.458512L265.819 2.43158L267.733 7.68613C268.3 9.24289 267.498 10.9647 265.941 11.5318C264.384 12.099 262.663 11.2968 262.096 9.74L260.9 6.45851L257.092 6.45851C255.436 6.45851 254.092 5.11537 254.092 3.45851C254.092 1.80166 255.436 0.458514 257.092 0.458514L263 0.458512ZM265.924 20.2491C265.357 18.6923 266.159 16.9706 267.716 16.4034C269.273 15.8362 270.995 16.6385 271.562 18.1952L275.39 28.7043C275.958 30.2611 275.155 31.9828 273.599 32.55C272.042 33.1172 270.32 32.3149 269.753 30.7582L265.924 20.2491ZM245.277 0.458513C246.934 0.458513 248.277 1.80166 248.277 3.45851C248.277 5.11537 246.934 6.45851 245.277 6.45851L233.462 6.45851C231.805 6.45851 230.462 5.11537 230.462 3.45851C230.462 1.80166 231.805 0.458514 233.462 0.458514L245.277 0.458513ZM273.582 41.2673C273.014 39.7105 273.817 37.9887 275.373 37.4216C276.93 36.8544 278.652 37.6566 279.219 39.2134L283.048 49.7225C283.615 51.2792 282.813 53.001 281.256 53.5682C279.699 54.1353 277.977 53.3331 277.41 51.7764L273.582 41.2673ZM221.647 0.458513C223.304 0.458513 224.647 1.80166 224.647 3.45851C224.647 5.11537 223.304 6.45851 221.647 6.45851L209.832 6.45851C208.175 6.45851 206.832 5.11537 206.832 3.45851C206.832 1.80166 208.175 0.458516 209.832 0.458515L221.647 0.458513ZM281.239 62.2854C280.672 60.7287 281.474 59.0069 283.031 58.4397C284.588 57.8726 286.309 58.6748 286.876 60.2316L290.705 70.7407C291.272 72.2974 290.47 74.0192 288.913 74.5864C287.357 75.1535 285.635 74.3513 285.068 72.7945L281.239 62.2854ZM198.017 0.45851C199.674 0.458509 201.017 1.80166 201.017 3.45852C201.017 5.11537 199.674 6.45851 198.017 6.45851L186.202 6.45851C184.545 6.45851 183.202 5.11537 183.202 3.45851C183.202 1.80166 184.545 0.458513 186.202 0.458514L198.017 0.45851ZM288.896 83.3036C288.329 81.7469 289.131 80.0251 290.688 79.4579C292.245 78.8908 293.967 79.693 294.534 81.2498L297.804 90.2261C298.843 90.0501 299.911 89.9585 301 89.9585C311.493 89.9585 320 98.4651 320 108.958C320 119.452 311.493 127.958 301 127.958C290.507 127.958 282 119.452 282 108.958C282 101.672 286.101 95.3439 292.121 92.1562L288.896 83.3036ZM174.387 0.458509C176.043 0.458511 177.387 1.80166 177.387 3.45851C177.387 5.11537 176.043 6.45851 174.387 6.45851L162.571 6.45851C160.915 6.45852 159.571 5.11536 159.571 3.45851C159.571 1.80166 160.915 0.458512 162.571 0.458513L174.387 0.458509ZM150.756 0.458514C152.413 0.458515 153.756 1.80166 153.756 3.45851C153.756 5.11537 152.413 6.45851 150.756 6.45851L138.941 6.45852C137.284 6.45851 135.941 5.11536 135.941 3.45851C135.941 1.80166 137.284 0.458511 138.941 0.458512L150.756 0.458514ZM127.126 0.458513C128.783 0.458508 130.126 1.80166 130.126 3.45851C130.126 5.11537 128.783 6.45851 127.126 6.45852L115.311 6.45851C113.654 6.45851 112.311 5.11536 112.311 3.45851C112.311 1.80166 113.654 0.458507 115.311 0.458508L127.126 0.458513ZM103.496 0.458512C105.153 0.458513 106.496 1.80166 106.496 3.45851C106.496 5.11536 105.153 6.45851 103.496 6.45851L91.6807 6.45852C90.0239 6.45851 88.6807 5.11536 88.6807 3.45851C88.6807 1.80166 90.0239 0.458512 91.6807 0.458513L103.496 0.458512ZM79.8656 0.458508C81.5225 0.45851 82.8656 1.80166 82.8656 3.45851C82.8656 5.11537 81.5225 6.45851 79.8656 6.45851L68.0505 6.45851C66.3936 6.45851 65.0505 5.11537 65.0505 3.45851C65.0505 1.80165 66.3936 0.458508 68.0505 0.458512L79.8656 0.458508ZM56.2354 0.45852C57.8922 0.458521 59.2354 1.80166 59.2354 3.45852C59.2354 5.11537 57.8922 6.45851 56.2354 6.45851L44.4202 6.4585C42.7634 6.45851 41.4202 5.11536 41.4202 3.4585C41.4202 1.80165 42.7634 0.458505 44.4202 0.458506L56.2354 0.45852ZM32.6051 0.458516C34.262 0.458517 35.6051 1.80166 35.6051 3.45851C35.6051 5.11536 34.262 6.45851 32.6051 6.4585L20.79 6.45851C19.1331 6.45851 17.79 5.11537 17.79 3.45852C17.79 1.80165 19.1331 0.458507 20.79 0.458496L32.6051 0.458516ZM8.97485 0.458506C10.6317 0.458508 11.9749 1.80165 11.9749 3.4585C11.9749 5.11535 10.6317 6.4585 8.97485 6.45851L3.06738 6.4585C1.41052 6.4585 0.0673828 5.11536 0.0673828 3.45851C0.0673828 1.80166 1.41052 0.458514 3.06738 0.458515L8.97485 0.458506Z" fill="currentColor"></path></svg> 