<svg xmlns="http://www.w3.org/2000/svg" width="320" height="128" viewBox="0 0 320 128" fill="none"><path fill-rule="evenodd" clip-rule="evenodd" d="M57.0674 0.458512L54.9675 0.458512L54.2487 2.43158L52.3343 7.68613C51.7672 9.24289 52.5694 10.9647 54.1261 11.5318C55.6829 12.099 57.4047 11.2968 57.9718 9.74L59.1673 6.45851L62.975 6.45851C64.6318 6.45851 65.975 5.11537 65.975 3.45851C65.975 1.80166 64.6318 0.458514 62.975 0.458514L57.0674 0.458512ZM54.1432 20.2491C54.7103 18.6923 53.9081 16.9706 52.3513 16.4034C50.7946 15.8362 49.0728 16.6385 48.5056 18.1952L44.677 28.7043C44.1098 30.2611 44.912 31.9828 46.4688 32.55C48.0255 33.1172 49.7473 32.3149 50.3145 30.7582L54.1432 20.2491ZM74.7901 0.458513C73.1332 0.458513 71.7901 1.80166 71.7901 3.45851C71.7901 5.11537 73.1332 6.45851 74.7901 6.45851L86.6052 6.45851C88.2621 6.45851 89.6052 5.11537 89.6052 3.45851C89.6052 1.80166 88.2621 0.458514 86.6052 0.458514L74.7901 0.458513ZM46.4858 41.2673C47.0529 39.7105 46.2507 37.9887 44.694 37.4216C43.1372 36.8544 41.4154 37.6566 40.8483 39.2134L37.0196 49.7225C36.4524 51.2792 37.2547 53.001 38.8114 53.5682C40.3682 54.1353 42.0899 53.3331 42.6571 51.7764L46.4858 41.2673ZM98.4203 0.458513C96.7635 0.458513 95.4203 1.80166 95.4203 3.45851C95.4203 5.11537 96.7635 6.45851 98.4203 6.45851L110.235 6.45851C111.892 6.45851 113.235 5.11537 113.235 3.45851C113.235 1.80166 111.892 0.458516 110.235 0.458515L98.4203 0.458513ZM38.8284 62.2854C39.3956 60.7287 38.5934 59.0069 37.0366 58.4397C35.4798 57.8726 33.7581 58.6748 33.1909 60.2316L29.3622 70.7407C28.7951 72.2974 29.5973 74.0192 31.154 74.5864C32.7108 75.1535 34.4326 74.3513 34.9997 72.7945L38.8284 62.2854ZM122.051 0.45851C120.394 0.458509 119.051 1.80166 119.051 3.45852C119.051 5.11537 120.394 6.45851 122.051 6.45851L133.866 6.45851C135.523 6.45851 136.866 5.11537 136.866 3.45851C136.866 1.80166 135.523 0.458513 133.866 0.458514L122.051 0.45851ZM31.1711 83.3036C31.7382 81.7469 30.936 80.0251 29.3792 79.4579C27.8225 78.8908 26.1007 79.693 25.5335 81.2498L22.2633 90.2261C21.2242 90.0501 20.1565 89.9585 19.0674 89.9585C8.57397 89.9585 0.0673828 98.4651 0.0673828 108.958C0.0673828 119.452 8.57397 127.958 19.0674 127.958C29.5608 127.958 38.0674 119.452 38.0674 108.958C38.0674 101.672 33.966 95.3439 27.9459 92.1562L31.1711 83.3036ZM145.681 0.458509C144.024 0.458511 142.681 1.80166 142.681 3.45851C142.681 5.11537 144.024 6.45851 145.681 6.45851L157.496 6.45851C159.153 6.45852 160.496 5.11536 160.496 3.45851C160.496 1.80166 159.153 0.458512 157.496 0.458513L145.681 0.458509ZM169.311 0.458514C167.654 0.458515 166.311 1.80166 166.311 3.45851C166.311 5.11537 167.654 6.45851 169.311 6.45851L181.126 6.45852C182.783 6.45851 184.126 5.11536 184.126 3.45851C184.126 1.80166 182.783 0.458511 181.126 0.458512L169.311 0.458514ZM192.941 0.458513C191.284 0.458508 189.941 1.80166 189.941 3.45851C189.941 5.11537 191.284 6.45851 192.941 6.45852L204.756 6.45851C206.413 6.45851 207.756 5.11536 207.756 3.45851C207.756 1.80166 206.413 0.458507 204.756 0.458508L192.941 0.458513ZM216.572 0.458512C214.915 0.458513 213.572 1.80166 213.572 3.45851C213.572 5.11536 214.915 6.45851 216.572 6.45851L228.387 6.45852C230.044 6.45851 231.387 5.11536 231.387 3.45851C231.387 1.80166 230.044 0.458512 228.387 0.458513L216.572 0.458512ZM240.202 0.458508C238.545 0.45851 237.202 1.80166 237.202 3.45851C237.202 5.11537 238.545 6.45851 240.202 6.45851L252.017 6.45851C253.674 6.45851 255.017 5.11537 255.017 3.45851C255.017 1.80165 253.674 0.458508 252.017 0.458512L240.202 0.458508ZM263.832 0.45852C262.175 0.458521 260.832 1.80166 260.832 3.45852C260.832 5.11537 262.175 6.45851 263.832 6.45851L275.647 6.4585C277.304 6.45851 278.647 5.11536 278.647 3.4585C278.647 1.80165 277.304 0.458505 275.647 0.458506L263.832 0.45852ZM287.462 0.458516C285.805 0.458517 284.462 1.80166 284.462 3.45851C284.462 5.11536 285.805 6.45851 287.462 6.4585L299.277 6.45851C300.934 6.45851 302.277 5.11537 302.277 3.45852C302.277 1.80165 300.934 0.458507 299.277 0.458496L287.462 0.458516ZM311.093 0.458506C309.436 0.458508 308.093 1.80165 308.093 3.4585C308.093 5.11535 309.436 6.4585 311.093 6.45851L317 6.4585C318.657 6.4585 320 5.11536 320 3.45851C320 1.80166 318.657 0.458514 317 0.458515L311.093 0.458506Z" fill="currentColor"></path></svg> 